<svg id="Capa_1" enable-background="new 0 0 512 512" height="512" viewBox="0 0 512 512" width="512" xmlns="http://www.w3.org/2000/svg"><g><path d="m503.016 134.771c-34.911-18.483-52.379-45.687-59.606-60.006-3.18-6.3-8.854-10.889-15.662-12.746l-160.794-43.852c-7.172-1.956-14.737-1.956-21.909 0l-160.792 43.852c-6.809 1.857-12.482 6.446-15.662 12.746-6.958 13.784-23.406 39.51-55.769 57.901l-6.822 19.334c10.777 48.826 62.017 222.104 247.5 336.5l17.625.347c180.27-114.471 229.84-287.62 240.492-335.883 1.613-7.305-1.99-14.692-8.601-18.193z" fill="#eceaec"/><path d="m398.038 105.701-135.465-36.945c-4.303-1.174-8.842-1.174-13.145 0l-135.466 36.945c-3.899 1.063-7.332 3.469-9.504 6.877-8.74 13.706-21.914 30.399-40.914 45.776-5.206 4.214-7.24 11.221-5.217 17.606 19.582 61.79 69.351 172.606 188.114 256.499 5.691 4.02 13.429 4.02 19.121.001 118.781-83.893 168.533-194.707 188.113-256.5 2.023-6.385-.011-13.391-5.217-17.605-19-15.377-32.174-32.071-40.914-45.777-2.174-3.408-5.607-5.814-9.506-6.877z" fill="#a4ccff"/><g><path d="m12.822 132.666c-1.302.742-2.483 1.388-3.837 2.105-6.611 3.501-10.214 10.888-8.602 18.193 10.777 48.827 61.387 225.479 246.87 339.874 5.322 3.282 12.173 3.282 17.495 0 2.147-1.324 4.266-2.651 6.378-3.991-210.388-125.655-253.98-332.663-258.304-356.181z" fill="#dad8db"/></g><path d="m75.81 176.56c18.77 56.016 64.046 154.478 166.727 232.401 5.519 4.188 13.463.346 13.463-6.582v-307.252c0-5.49-5.221-9.478-10.518-8.033l-121.149 33.04c-3.863 1.054-7.152 3.507-9.407 6.817-10.241 15.031-22.528 28.734-36.542 40.717-2.576 2.203-3.651 5.677-2.574 8.892z" fill="#8bb3ea"/><g><path d="m341.592 275.76h16.638v41.595h-16.638z" fill="#ffd064" transform="matrix(-.866 .5 -.5 -.866 801.222 378.428)"/><circle cx="339.513" cy="278.546" fill="#ffe07d" r="8.319"/><path d="m420.623 412.645h16.638v41.595h-16.638z" fill="#ffd064" transform="matrix(.866 -.5 .5 .866 -159.254 272.541)"/><circle cx="439.341" cy="451.454" fill="#ffe07d" r="8.319"/><path d="m449.55 304.687h16.638v41.595h-16.638z" fill="#ffd064" transform="matrix(-.5 -.866 .866 -.5 404.926 884.754)"/><circle cx="475.88" cy="315.086" fill="#ffe07d" r="8.319"/><path d="m312.665 383.718h16.638v41.595h-16.638z" fill="#ffd064" transform="matrix(.5 .866 -.866 .5 510.813 -75.723)"/><circle cx="302.973" cy="414.914" fill="#ffe07d" r="8.319"/><path d="m420.623 275.76h16.638v41.595h-16.638z" fill="#ffd064" transform="matrix(.866 .5 -.5 .866 205.746 -174.74)"/><circle cx="439.341" cy="278.546" fill="#ffe07d" r="8.319"/><path d="m341.592 412.645h16.638v41.595h-16.638z" fill="#ffd064" transform="matrix(-.866 -.5 .5 -.866 436.222 983.771)"/><circle cx="339.513" cy="451.454" fill="#ffe07d" r="8.319"/><path d="m312.665 304.687h16.638v41.595h-16.638z" fill="#ffd064" transform="matrix(.5 -.866 .866 .5 -121.386 440.723)"/><circle cx="302.973" cy="315.086" fill="#ffe07d" r="8.319"/><path d="m449.55 383.718h16.638v41.595h-16.638z" fill="#ffd064" transform="matrix(-.5 .866 -.866 -.5 1037.124 210.247)"/><circle cx="475.88" cy="414.914" fill="#ffe07d" r="8.319"/><path d="m460.138 344.202h16.638v41.595h-16.638z" fill="#ffd064" transform="matrix(0 1 -1 0 833.457 -103.457)"/><circle cx="489.255" cy="365" fill="#ffe07d" r="8.319"/><path d="m302.077 344.202h16.638v41.595h-16.638z" fill="#ffd064" transform="matrix(0 -1 1 0 -54.604 675.396)"/><circle cx="289.599" cy="365" fill="#ffe07d" r="8.319"/><path d="m381.108 265.172h16.638v41.595h-16.638z" fill="#ffd064"/><circle cx="389.427" cy="265.172" fill="#ffe07d" r="8.319"/><path d="m381.108 423.233h16.638v41.595h-16.638z" fill="#ffd064" transform="matrix(-1 0 0 -1 778.854 888.061)"/><circle cx="389.427" cy="464.828" fill="#ffe07d" r="8.319"/><path d="m455.979 365c0 14.652-4.735 28.198-12.758 39.191-12.103 16.585-31.691 24.119-53.794 24.119-36.756 0-62.214-26.555-62.214-63.311 0-22.091 6.425-41.668 22.993-53.773 10.999-8.036 24.556-12.779 39.221-12.779 36.755.001 66.552 29.797 66.552 66.553z" fill="#ff8086"/><path d="m403.985 416.994c-36.756 0-66.552-29.796-66.552-66.552 0-14.66 4.742-28.217 12.773-39.214-16.574 12.105-27.331 31.677-27.331 53.773 0 36.756 29.796 66.552 66.552 66.552 22.095 0 41.69-10.787 53.794-27.361-10.997 8.031-24.576 12.802-39.236 12.802z" fill="#e5646e"/><g><path d="m389.427 348.362c-4.598 0-8.319-3.725-8.319-8.319v-8.319c0-4.594 3.721-8.319 8.319-8.319s8.319 3.725 8.319 8.319v8.319c0 4.594-3.721 8.319-8.319 8.319z" fill="#ffe07d"/></g><g><path d="m389.427 406.595c-4.598 0-8.319-3.725-8.319-8.319v-8.319c0-4.594 3.721-8.319 8.319-8.319s8.319 3.725 8.319 8.319v8.319c0 4.594-3.721 8.319-8.319 8.319z" fill="#ffe07d"/></g><g><path d="m422.703 373.319h-8.319c-4.598 0-8.319-3.725-8.319-8.319s3.721-8.319 8.319-8.319h8.319c4.598 0 8.319 3.725 8.319 8.319s-3.721 8.319-8.319 8.319z" fill="#ffe07d"/></g><g><path d="m364.47 373.319h-8.319c-4.598 0-8.319-3.725-8.319-8.319s3.721-8.319 8.319-8.319h8.319c4.598 0 8.319 3.725 8.319 8.319s-3.721 8.319-8.319 8.319z" fill="#ffe07d"/></g></g></g></svg>